HIERARCHY
ROOT Hips
{
	OFFSET 0.000000 0.000000 0.000000
	CHANNELS 6 Xposition Yposition Zposition Xrotation Yrotation Zrotation
	JOINT LeftUpLeg_virtual
	{
		OFFSET 0.000000 0.000000 0.000000
		CHANNELS 3 Xrotation Yrotation Zrotation
		JOINT LeftUpLeg
		{
			OFFSET 10.205400 -3.823500 0.155100
			CHANNELS 3 Xrotation Yrotation Zrotation
			JOINT LeftLeg
			{
				OFFSET 0.708757 -12.982077 0.567790
				CHANNELS 3 Xrotation Yrotation Zrotation
				JOINT LeftFoot
				{
					OFFSET -0.708756 -10.717838 -2.184338
					CHANNELS 3 Xrotation Yrotation Zrotation
					JOINT LeftToeBase
					{
						OFFSET 0.108149 -7.191104 7.560241
						CHANNELS 3 Xrotation Yrotation Zrotation
						JOINT LeftToe_End
						{
							OFFSET 0.070230 0.081724 4.490308
							CHANNELS 3 Xrotation Yrotation Zrotation
							End Site
							{
								OFFSET 0 0 0
							}
						}
					}
				}
			}
		}
	}
	JOINT RightUpLeg_virtual
	{
		OFFSET 0.000000 0.000000 0.000000
		CHANNELS 3 Xrotation Yrotation Zrotation
		JOINT RightUpLeg
		{
			OFFSET -10.205400 -3.823500 0.005500
			CHANNELS 3 Xrotation Yrotation Zrotation
			JOINT RightLeg
			{
				OFFSET -0.708756 -12.982134 0.610632
				CHANNELS 3 Xrotation Yrotation Zrotation
				JOINT RightFoot
				{
					OFFSET 0.708754 -10.717769 -1.945823
					CHANNELS 3 Xrotation Yrotation Zrotation
					JOINT RightToeBase
					{
						OFFSET -0.108140 -7.191069 7.372968
						CHANNELS 3 Xrotation Yrotation Zrotation
						JOINT RightToe_End
						{
							OFFSET -0.070227 0.081735 4.479403
							CHANNELS 3 Xrotation Yrotation Zrotation
							End Site
							{
								OFFSET 0 0 0
							}
						}
					}
				}
			}
		}
	}
	JOINT Spine_virtual
	{
		OFFSET 0.000000 0.000000 0.000000
		CHANNELS 3 Xrotation Yrotation Zrotation
		JOINT Spine
		{
			OFFSET 0.000000 6.876099 0.125700
			CHANNELS 3 Xrotation Yrotation Zrotation
			JOINT Spine1
			{
				OFFSET 0.000000 5.730043 0.104720
				CHANNELS 3 Xrotation Yrotation Zrotation
				JOINT Spine1_split
				{
					OFFSET 0.000000 5.730043 0.104720
					CHANNELS 3 Xrotation Yrotation Zrotation
					JOINT Spine2
					{
						OFFSET 0.000000 5.730043 0.104720
						CHANNELS 3 Xrotation Yrotation Zrotation
						JOINT Neck_virtual
						{
							OFFSET 0.000000 0.000000 0.000000
							CHANNELS 3 Xrotation Yrotation Zrotation
							JOINT Neck
							{
								OFFSET 0.000000 10.314075 0.188496
								CHANNELS 3 Xrotation Yrotation Zrotation
								JOINT Head
								{
									OFFSET 0.000000 7.643700 -2.377400
									CHANNELS 3 Xrotation Yrotation Zrotation
									JOINT HeadTop_End
									{
										OFFSET 0.000000 43.788605 -13.619600
										CHANNELS 3 Xrotation Yrotation Zrotation
										End Site
										{
											OFFSET 0 0 0
										}
									}
								}
							}
						}
						JOINT LeftShoulder_virtual
						{
							OFFSET 0.000000 0.000000 0.000000
							CHANNELS 3 Xrotation Yrotation Zrotation
							JOINT LeftShoulder
							{
								OFFSET 2.196100 4.412489 0.087492
								CHANNELS 3 Xrotation Yrotation Zrotation
								JOINT LeftShoulder_split
								{
									OFFSET 2.196100 4.412489 0.087492
									CHANNELS 3 Xrotation Yrotation Zrotation
									JOINT LeftArm
									{
										OFFSET 8.771219 -2.981674 -0.026999
										CHANNELS 3 Xrotation Yrotation Zrotation
										JOINT LeftForeArm
										{
											OFFSET 8.512804 0.000000 -0.000000
											CHANNELS 3 Xrotation Yrotation Zrotation
											JOINT LeftHand
											{
												OFFSET 18.484802 0.000000 -0.000000
												CHANNELS 3 Xrotation Yrotation Zrotation
												End Site
												{
													OFFSET 0 0 0
												}
											}
										}
									}
								}
							}
						}
						JOINT RightShoulder_virtual
						{
							OFFSET 0.000000 0.000000 0.000000
							CHANNELS 3 Xrotation Yrotation Zrotation
							JOINT RightShoulder
							{
								OFFSET -2.196100 4.412496 0.070690
								CHANNELS 3 Xrotation Yrotation Zrotation
								JOINT RightShoulder_split
								{
									OFFSET -2.196100 4.412496 0.070690
									CHANNELS 3 Xrotation Yrotation Zrotation
									JOINT RightArm
									{
										OFFSET -8.771282 -2.981682 -0.094208
										CHANNELS 3 Xrotation Yrotation Zrotation
										JOINT RightForeArm
										{
											OFFSET -8.494598 0.000000 0.000000
											CHANNELS 3 Xrotation Yrotation Zrotation
											JOINT RightHand
											{
												OFFSET -18.483803 0.000000 0.000001
												CHANNELS 3 Xrotation Yrotation Zrotation
												End Site
												{
													OFFSET 0 0 0
												}
											}
										}
									}
								}
							}
						}
					}
				}
			}
		}
	}
}
MOTION
Frames: 7
Frame Time: 0.03333333
0.753454 78.639587 -8.492166 0.000000 0.000000 0.000000 7.817887 -7.111172 -0.023840 -68.236896 20.979338 21.256683 99.608467 -3.926497 8.089165 -23.949932 15.888222 -26.987068 18.036450 -2.810774 15.604634 0.000000 0.000000 0.000000 7.817887 -7.111172 -0.023840 -90.451027 14.218191 -16.306095 123.868978 5.651378 1.342531 -16.653483 -18.637097 35.083451 -0.868673 3.731917 7.627370 0.000000 0.000000 0.000000 7.817887 -7.111172 -0.023840 7.002222 -0.269695 -0.411595 13.996688 -1.811983 -1.211085 0.000000 0.000000 0.000000 0.000000 0.000000 0.000000 13.996692 -1.811983 -1.211083 -24.372384 5.014638 -0.945693 -1.224029 -6.048550 6.641317 0.000000 0.000000 0.000000 13.996692 -1.811983 -1.211083 -1.844341 -14.027007 26.494104 0.000000 0.000000 0.000000 -63.430382 -7.026764 -16.234105 23.387172 -71.240376 49.981849 0.000000 0.000000 0.000000 13.996692 -1.811983 -1.211083 5.983853 16.525180 -13.888776 0.000000 0.000000 0.000000 -72.297149 38.279669 21.699747 -16.158354 59.491371 -20.424303 0.000000 0.000000 0.000000 
0.774354 79.230980 -8.652745 0.000000 0.000000 0.000000 5.215669 -8.022398 0.233053 -76.845229 16.548244 23.453828 105.814725 -7.959162 3.744244 -28.168236 16.715305 -25.737618 17.823319 -1.543961 16.681492 0.000000 0.000000 0.000000 5.215669 -8.022398 0.233053 -100.138325 11.096178 -15.585655 119.218548 5.398721 -0.553944 -11.177210 -16.121099 35.520829 2.511455 3.761256 3.542928 0.000000 0.000000 0.000000 5.215669 -8.022398 0.233053 8.445705 -0.069140 -0.697491 16.887412 -1.177191 -1.114029 0.000000 0.000000 0.000000 0.000000 0.000000 0.000000 16.887431 -1.177192 -1.114027 -26.807224 6.493744 -1.451446 4.682592 -9.389105 9.652372 0.000000 0.000000 0.000000 16.887431 -1.177192 -1.114027 -0.612884 -14.977181 27.292830 0.000000 0.000000 0.000000 -67.334778 -8.203780 -15.014250 16.808273 -68.480324 48.053004 0.000000 0.000000 0.000000 16.887431 -1.177192 -1.114027 6.218770 17.756047 -13.894184 0.000000 0.000000 0.000000 -82.947976 43.284504 24.548769 -18.192467 53.742462 -21.031681 0.000000 0.000000 0.000000 
0.748988 79.553574 -8.669200 0.000000 0.000000 0.000000 2.544207 -7.992764 0.570869 -86.902437 12.925178 23.742878 103.592352 -9.103799 1.630933 -22.695453 14.899796 -25.531126 15.821534 -0.277193 14.833890 0.000000 0.000000 0.000000 2.544207 -7.992764 0.570869 -104.552335 5.486229 -15.141592 107.080393 5.062344 -2.000658 -6.829831 -12.511044 32.005208 6.672652 3.651636 0.751902 0.000000 0.000000 0.000000 2.544207 -7.992764 0.570869 9.692621 -0.104514 -0.838822 19.380867 -0.593884 -1.137936 0.000000 0.000000 0.000000 0.000000 0.000000 0.000000 19.380867 -0.593886 -1.137935 -27.906172 8.033926 -1.876916 10.220140 -12.179003 11.188143 0.000000 0.000000 0.000000 19.380867 -0.593886 -1.137935 1.416559 -16.917209 27.896837 0.000000 0.000000 0.000000 -71.463907 -13.211103 -13.429042 5.023462 -63.827278 43.312415 0.000000 0.000000 0.000000 19.380867 -0.593886 -1.137935 7.401570 20.145756 -15.002647 0.000000 0.000000 0.000000 -85.334792 46.412235 18.300090 -22.943312 49.160259 -18.542919 0.000000 0.000000 0.000000 
0.643506 79.353264 -8.472653 0.000000 0.000000 0.000000 0.335384 -7.673274 0.880184 -92.047809 11.525167 22.487525 93.098156 -9.961449 1.156060 -13.331726 11.540097 -23.373054 13.718430 0.384911 10.233414 0.000000 0.000000 0.000000 0.335384 -7.673274 0.880184 -101.680459 -1.366844 -15.121293 89.933825 6.931551 -2.053799 -5.709948 -9.293856 23.945964 9.718648 3.798729 0.434108 0.000000 0.000000 0.000000 0.335384 -7.673274 0.880184 10.659991 -0.156666 -0.769450 21.316524 -0.290757 -1.141270 0.000000 0.000000 0.000000 0.000000 0.000000 0.000000 21.316535 -0.290757 -1.141269 -27.499866 9.287818 -2.027715 13.878547 -13.401407 11.047120 0.000000 0.000000 0.000000 21.316535 -0.290757 -1.141269 3.604426 -18.354397 29.488037 0.000000 0.000000 0.000000 -73.580767 -16.357439 -9.940296 -5.383968 -59.850120 38.716839 0.000000 0.000000 0.000000 21.316535 -0.290757 -1.141269 8.955281 22.064436 -17.026272 0.000000 0.000000 0.000000 -80.139135 47.684238 5.475461 -28.400637 45.367257 -14.783316 0.000000 0.000000 0.000000 
0.647456 78.601715 -8.096231 0.000000 0.000000 0.000000 -1.328972 -7.502450 1.150036 -91.396216 13.021278 20.337187 79.908063 -11.545765 1.499511 -4.246503 7.935587 -16.724859 10.661753 -0.964718 4.048654 0.000000 0.000000 0.000000 -1.328972 -7.502450 1.150036 -95.287197 -7.898964 -15.326437 72.481831 9.480315 -0.919486 -4.301666 -6.118586 15.541889 8.746287 5.421373 2.287814 0.000000 0.000000 0.000000 -1.328972 -7.502450 1.150036 11.263863 -0.169929 -0.655979 22.525117 -0.233012 -1.044683 0.000000 0.000000 0.000000 0.000000 0.000000 0.000000 22.525112 -0.233014 -1.044683 -25.698156 10.045504 -1.883916 15.556654 -13.234735 9.919604 0.000000 0.000000 0.000000 22.525112 -0.233014 -1.044683 4.957417 -18.168875 31.734572 0.000000 0.000000 0.000000 -73.124429 -15.655272 -5.604236 -14.257545 -56.993848 32.782562 0.000000 0.000000 0.000000 22.525112 -0.233014 -1.044683 10.130657 22.158370 -19.697099 0.000000 0.000000 0.000000 -74.150036 46.992084 -5.532358 -32.523090 41.786602 -11.731333 0.000000 0.000000 0.000000 
0.536763 77.476875 -7.729793 0.000000 0.000000 0.000000 -2.858906 -7.424011 1.362464 -86.156443 16.642500 18.206267 67.836626 -14.232174 1.435404 -0.893641 6.649304 -7.090330 4.046318 -3.570647 -0.781740 0.000000 0.000000 0.000000 -2.858906 -7.424011 1.362464 -88.717395 -14.480754 -14.528186 55.573083 9.051168 0.095828 4.719367 -2.283873 9.981772 -17.378441 7.288346 9.901986 0.000000 0.000000 0.000000 -2.858906 -7.424011 1.362464 11.509971 -0.208645 -0.570435 23.017551 -0.255260 -0.881366 0.000000 0.000000 0.000000 0.000000 0.000000 0.000000 23.017538 -0.255259 -0.881368 -22.914595 10.339474 -1.585265 16.071097 -12.467580 8.595113 0.000000 0.000000 0.000000 23.017538 -0.255259 -0.881368 5.058437 -16.552479 33.912296 0.000000 0.000000 0.000000 -71.568771 -13.168073 -2.777423 -21.755573 -53.568726 25.644497 0.000000 0.000000 0.000000 23.017538 -0.255259 -0.881368 11.038708 20.184411 -23.873249 0.000000 0.000000 0.000000 -71.352145 44.246628 -10.401444 -35.120293 38.850635 -10.056444 0.000000 0.000000 0.000000 
0.331653 75.913658 -7.285668 0.000000 0.000000 0.000000 -4.830516 -7.290319 1.449956 -74.125639 22.036285 14.623737 47.960390 -17.145981 1.020833 4.057320 5.698816 -0.289063 -42.966965 -3.301365 -3.696482 0.000000 0.000000 0.000000 -4.830516 -7.290319 1.449956 -88.756976 -18.371921 -15.280007 54.158803 8.157116 -0.021251 5.921847 -0.135151 8.015326 -36.313517 5.745140 14.518904 0.000000 0.000000 0.000000 -4.830516 -7.290319 1.449956 11.524698 -0.098524 -0.433794 23.047908 -0.227262 -0.703353 0.000000 0.000000 0.000000 0.000000 0.000000 0.000000 23.047876 -0.227261 -0.703353 -19.722750 10.349834 -1.312151 16.120119 -11.699938 7.306045 0.000000 0.000000 0.000000 23.047876 -0.227261 -0.703353 4.501767 -14.521503 35.751020 0.000000 0.000000 0.000000 -69.727789 -11.772276 -1.413568 -27.740335 -47.885852 18.457768 0.000000 0.000000 0.000000 23.047876 -0.227261 -0.703353 12.242702 17.018040 -30.451053 0.000000 0.000000 0.000000 -70.717975 38.069091 -10.863254 -37.434194 37.109032 -9.049454 0.000000 0.000000 0.000000 
